<?xml version="1.0" encoding="UTF-8" standalone="no" ?>
<!DOCTYPE svg PUBLIC "-//W3C//DTD SVG 1.1//EN" "http://www.w3.org/Graphics/SVG/1.1/DTD/svg11.dtd">
<svg xmlns="http://www.w3.org/2000/svg" xmlns:xlink="http://www.w3.org/1999/xlink" version="1.1" width="500" height="500" viewBox="0 0 500 500" xml:space="preserve">
<desc>Created with Fabric.js 4.6.0</desc>
<defs>
</defs>
<g transform="matrix(1 0 0 1 250 248.73)" id="10f74TQx-FFAD6caIq_yP"  >
<path style="stroke: none; stroke-width: 1; stroke-dasharray: none; stroke-linecap: butt; stroke-dashoffset: 0; stroke-linejoin: miter; stroke-miterlimit: 4; fill: rgb(51,113,128); fill-rule: nonzero; opacity: 1;" vector-effect="non-scaling-stroke"  transform=" translate(-248.08, -248.08)" d="M 248.082 0.003 C 111.071 0.003 0 111.062 0 248.085 C 0 385.086 111.07 496.155 248.082 496.155 C 385.08799999999997 496.155 496.158 385.08599999999996 496.158 248.08499999999998 C 496.159 111.062 385.088 0.003 248.082 0.003 z" stroke-linecap="round" />
</g>
<g transform="matrix(1 0 0 1 110.36 159.38)" id="xCK6G6x9JPq0UHSGCyWZe"  >
<path style="stroke: none; stroke-width: 1; stroke-dasharray: none; stroke-linecap: butt; stroke-dashoffset: 0; stroke-linejoin: miter; stroke-miterlimit: 4; fill: rgb(166,167,169); fill-rule: nonzero; opacity: 1;" vector-effect="non-scaling-stroke"  transform=" translate(-108.44, -157.46)" d="M 103.57 150.833 C 97.693 148.875 95.735 144.303 94.42999999999999 149.528 C 93.12499999999999 154.75199999999998 115.97699999999999 167.81099999999998 115.97699999999999 167.81099999999998 L 122.50699999999999 155.40499999999997 C 122.507 155.405 109.448 152.792 103.57 150.833 z" stroke-linecap="round" />
</g>
<g transform="matrix(1 0 0 1 218.13 217.4)" id="cUEZ9aMOEyEjBO5EX6ILS"  >
<path style="stroke: none; stroke-width: 1; stroke-dasharray: none; stroke-linecap: butt; stroke-dashoffset: 0; stroke-linejoin: miter; stroke-miterlimit: 4; fill: rgb(166,167,169); fill-rule: nonzero; opacity: 1;" vector-effect="non-scaling-stroke"  transform=" translate(-216.21, -215.48)" d="M 262.067 179.563 L 189.587 179.563 C 180.934 179.563 172.03699999999998 186.57999999999998 169.71699999999998 195.23499999999999 L 158.87499999999997 235.71999999999997 C 156.55699999999996 244.37399999999997 161.69399999999996 251.38999999999996 170.34799999999998 251.38999999999996 L 235.64499999999998 251.38999999999996 C 251.96999999999997 251.38999999999996 260.599 243.55399999999995 265.147 226.57699999999997 L 273.542 195.23399999999998 C 275.86 186.58 270.722 179.563 262.067 179.563 z M 261.611 211.742 L 256.805 229.68099999999998 C 254.203 239.397 249.264 243.88199999999998 239.922 243.88199999999998 L 208.925 243.88199999999998 C 203.971 243.88199999999998 201.03300000000002 239.86499999999998 202.36100000000002 234.91299999999998 L 208.567 211.742 C 209.893 206.789 214.984 202.774 219.937 202.774 L 255.042 202.774 C 259.997 202.773 262.937 206.789 261.611 211.742 z" stroke-linecap="round" />
</g>
<g transform="matrix(1 0 0 1 267.59 175.93)" id="nkAqcmcW1H-edeXE8VOXf"  >
<path style="stroke: none; stroke-width: 1; stroke-dasharray: none; stroke-linecap: butt; stroke-dashoffset: 0; stroke-linejoin: miter; stroke-miterlimit: 4; fill: rgb(166,167,169); fill-rule: nonzero; opacity: 1;" vector-effect="non-scaling-stroke"  transform=" translate(-265.67, -174.01)" d="M 419.935 145.609 L 129.69 145.609 L 118.652 153.46300000000002 L 106.836 202.418 L 419.93600000000004 202.418 C 419.93600000000004 202.418 424.50600000000003 191.97 424.50600000000003 174.34 C 424.505 156.71 419.935 145.609 419.935 145.609 z" stroke-linecap="round" />
</g>
<g transform="matrix(1 0 0 1 250 250)" id="KepmY1Fb0fCU1hWjdjbSv"  >
<path style="stroke: none; stroke-width: 1; stroke-dasharray: none; stroke-linecap: butt; stroke-dashoffset: 0; stroke-linejoin: miter; stroke-miterlimit: 4; fill: rgb(188,188,188); fill-rule: nonzero; opacity: 1;" vector-effect="non-scaling-stroke"  transform=" translate(-248.08, -248.08)" d="M 421.567 145.609 C 421.567 145.609 136.873 145.609 129.69 145.609 C 122.507 145.609 120.765 148.00400000000002 119.03699999999999 152.08800000000002 C 117.15899999999999 156.526 111.47699999999999 189.17900000000003 107.92299999999999 191.97000000000003 C 104.36899999999999 194.76300000000003 88.36899999999999 194.33300000000003 90.511 199.15200000000002 C 92.925 204.58200000000002 120.38199999999999 206.12800000000001 119.417 228.972 C 116.71900000000001 236.40800000000002 113.44500000000001 243.98600000000002 108.794 252.044 C 101.681 264.375 87.898 278.163 76.798 302.32300000000004 C 65.697 326.48300000000006 71.57300000000001 346.07200000000006 71.57300000000001 346.07200000000006 C 71.57300000000001 346.07200000000006 84.46100000000001 349.43300000000005 105.30700000000002 350.42600000000004 C 126.15300000000002 351.41800000000006 155.80700000000002 346.07200000000006 155.80700000000002 346.07200000000006 C 155.80700000000002 346.07200000000006 209.894 217.66000000000005 212.887 212.32400000000007 C 215.88 206.98800000000008 221.104 204.37700000000007 228.287 204.37700000000007 C 235.469 204.37700000000007 349.73900000000003 204.37700000000007 349.73900000000003 204.37700000000007 C 349.73900000000003 204.37700000000007 353.569 203.12100000000007 353.54800000000006 202.41800000000006 C 353.54800000000006 202.41800000000006 349.68000000000006 202.64500000000007 349.67800000000005 202.25300000000007 C 349.62500000000006 196.72300000000007 350.21000000000004 181.83200000000008 357.57400000000007 174.99300000000008 C 366.71600000000007 166.50400000000008 426.13700000000006 169.11600000000007 426.13700000000006 169.11600000000007 C 426.138 161.608 421.567 145.609 421.567 145.609 z" stroke-linecap="round" />
</g>
<g transform="matrix(1 0 0 1 353.53 205.26)" id="FyeVj37SAA8oTTSseWgdO"  >
<path style="stroke: none; stroke-width: 1; stroke-dasharray: none; stroke-linecap: butt; stroke-dashoffset: 0; stroke-linejoin: miter; stroke-miterlimit: 4; fill: rgb(188,188,188); fill-rule: nonzero; opacity: 1;" vector-effect="non-scaling-stroke"  transform=" translate(-351.61, -203.34)" d="M 349.716 202.31 C 349.69100000000003 203.071 349.67900000000003 203.763 349.677 204.377 C 349.71000000000004 204.377 349.74 204.377 349.74 204.377 C 349.74 204.377 353.57 203.121 353.54900000000004 202.418 C 353.549 202.418 350.09 202.62 349.716 202.31 z" stroke-linecap="round" />
</g>
<g transform="matrix(1 0 0 1 389.83 187.45)" id="scjUtPgAmGvyvx3h4babU"  >
<path style="stroke: none; stroke-width: 1; stroke-dasharray: none; stroke-linecap: butt; stroke-dashoffset: 0; stroke-linejoin: miter; stroke-miterlimit: 4; fill: rgb(136,136,137); fill-rule: nonzero; opacity: 1;" vector-effect="non-scaling-stroke"  transform=" translate(-387.91, -185.52)" d="M 425.963 169.109 C 422.437 168.96300000000002 366.42900000000003 166.773 357.57500000000005 174.994 C 350.21000000000004 181.833 349.62600000000003 196.724 349.67900000000003 202.254 C 349.67900000000003 202.27499999999998 349.69500000000005 202.29399999999998 349.716 202.31099999999998 C 349.931 195.58799999999997 351.25600000000003 183.801 357.575 177.932 C 366.717 169.44299999999998 426.138 172.05599999999998 426.138 172.05599999999998 C 426.138 171.178 426.074 170.18 425.963 169.109 z" stroke-linecap="round" />
</g>
<g transform="matrix(1 0 0 1 143.08 273.22)" id="WtnsxO-fLGdO-Xv8x_D76"  >
<path style="stroke: none; stroke-width: 1; stroke-dasharray: none; stroke-linecap: butt; stroke-dashoffset: 0; stroke-linejoin: miter; stroke-miterlimit: 4; fill: rgb(139,139,140); fill-rule: nonzero; opacity: 1;" vector-effect="non-scaling-stroke"  transform=" translate(-141.16, -271.3)" d="M 193.581 192.051 C 193.581 192.051 173.112 192.292 165.695 192.292 C 158.279 192.292 150.88299999999998 193.732 147.56099999999998 201.725 L 77.93099999999998 347.407 C 83.69599999999998 348.46099999999996 93.14299999999999 349.846 105.30899999999998 350.426 C 117.10999999999999 350.988 131.73 349.518 142.2 348.137 L 203.475 201.437 C 206.797 193.446 200.536 192.051 193.581 192.051 z" stroke-linecap="round" />
</g>
<g transform="matrix(1 0 0 1 234.28 184.75)" id="wOSSXW2VcQNq493vIx0mu"  >
<path style="stroke: none; stroke-width: 1; stroke-dasharray: none; stroke-linecap: butt; stroke-dashoffset: 0; stroke-linejoin: miter; stroke-miterlimit: 4; fill: rgb(166,167,169); fill-rule: nonzero; opacity: 1;" vector-effect="non-scaling-stroke"  transform=" translate(-232.36, -182.83)" d="M 112.167 181.523 L 111.558 184.134 L 352.17 184.134 C 352.468 183.24499999999998 352.791 182.368 353.161 181.523 L 112.167 181.523 z" stroke-linecap="round" />
</g>
<g transform="matrix(1 0 0 1 184.5 166.9)" id="t8oesVXRXSRz3v1YhuHe3"  >
<path style="stroke: none; stroke-width: 1; stroke-dasharray: none; stroke-linecap: butt; stroke-dashoffset: 0; stroke-linejoin: miter; stroke-miterlimit: 4; fill: rgb(156,157,160); fill-rule: nonzero; opacity: 1;" vector-effect="non-scaling-stroke"  transform=" translate(-24.16, -16.54)" d="M 0 33.08 L 0 0 L 48.32 0 L 48.32 33.08 z" stroke-linecap="round" />
</g>
<g transform="matrix(1 0 0 1 273.13 150.47)" id="Kxdp5H1MYyPeUfrD2JH4J"  >
<path style="stroke: none; stroke-width: 1; stroke-dasharray: none; stroke-linecap: butt; stroke-dashoffset: 0; stroke-linejoin: miter; stroke-miterlimit: 4; fill: rgb(198,198,198); fill-rule: nonzero; opacity: 1;" vector-effect="non-scaling-stroke"  transform=" translate(-271.21, -148.55)" d="M 421.567 145.609 C 421.567 145.609 136.873 145.609 129.69 145.609 C 122.868 145.609 120.956 147.77100000000002 119.29899999999999 151.485 L 423.11899999999997 151.485 C 422.267 148.058 421.567 145.609 421.567 145.609 z" stroke-linecap="round" />
</g>
<g transform="matrix(1 0 0 1 120.76 327.28)" id="tV_ghJ5NT1m55zr-BWu1H"  >
<path style="stroke: none; stroke-width: 1; stroke-dasharray: none; stroke-linecap: butt; stroke-dashoffset: 0; stroke-linejoin: miter; stroke-miterlimit: 4; fill: rgb(156,157,160); fill-rule: nonzero; opacity: 1;" vector-effect="non-scaling-stroke"  transform=" translate(-118.84, -325.36)" d="M 113.322 318.145 C 110.779 321.717 111.099 326.698 114.302 329.899 C 117.50500000000001 333.102 122.48400000000001 333.422 126.05600000000001 330.88 L 113.322 318.145 z" stroke-linecap="round" />
</g>
<g transform="matrix(1 0 0 1 124.52 323.52)" id="AiCPFHnUK7dov4_xK9YGc"  >
<path style="stroke: none; stroke-width: 1; stroke-dasharray: none; stroke-linecap: butt; stroke-dashoffset: 0; stroke-linejoin: miter; stroke-miterlimit: 4; fill: rgb(156,157,160); fill-rule: nonzero; opacity: 1;" vector-effect="non-scaling-stroke"  transform=" translate(-122.6, -321.6)" d="M 127.23 316.972 C 123.973 313.716 118.88000000000001 313.44 115.298 316.12199999999996 L 128.08 328.90299999999996 C 130.763 325.322 130.484 320.228 127.23 316.972 z" stroke-linecap="round" />
</g>
<g transform="matrix(1 0 0 1 304.68 168.91)" style="" id="o3mzHL_uMEuZrJWydWy4M"  >
		<text xml:space="preserve" font-family="Open Sans" font-size="28" font-style="italic" font-weight="600" letter-spacing="-0.336" line-height="0.85" style="stroke: rgb(0,0,0); stroke-width: 0.05; stroke-dasharray: none; stroke-linecap: butt; stroke-dashoffset: 0; stroke-linejoin: miter; stroke-miterlimit: 4; fill: rgb(156,157,160); fill-rule: nonzero; opacity: 1; white-space: pre;" ><tspan x="-93.5" y="8.8" >D</tspan><tspan x="-75.01" y="8.8" >A</tspan><tspan x="-58.71" y="8.8" >Y</tspan><tspan x="-44.06" y="8.8" >Z</tspan><tspan x="-29.44" y="8.8" style="white-space: pre; "> </tspan><tspan x="-22.5" y="8.8" >S</tspan><tspan x="-8.36" y="8.8" >U</tspan><tspan x="10.47" y="8.8" >C</tspan><tspan x="26.94" y="8.8" >K</tspan><tspan x="43.02" y="8.8" >S</tspan></text>
</g>
</svg>